<svg width="24" height="24" viewBox="0 0 24 24" xmlns="http://www.w3.org/2000/svg">
  <path d="M9 2.5L9.2 8M15 2.5L14.8 8M9.2 8C7.5 9 6 11.5 6 14.5V20.5C6 21.3 6.7 22 7.5 22H16.5C17.3 22 18 21.3 18 20.5V14.5C18 11.5 16.5 9 14.8 8M9.2 8C10 7.3 11 7 12 7C13 7 14 7.3 14.8 8" stroke="#C8C8C8" stroke-width="1.5" stroke-linecap="round" stroke-linejoin="round" fill="none"/>
  <circle cx="9.5" cy="13" r="1.2" fill="#C8C8C8"/>
  <circle cx="14.5" cy="13" r="1.2" fill="#C8C8C8"/>
  <ellipse cx="12" cy="16" rx="2" ry="1.2" stroke="#C8C8C8" stroke-width="1" fill="none"/>
</svg>
